<svg height="512" viewBox="0 0 60 60" width="512" xmlns="http://www.w3.org/2000/svg"><g id="Page-1" fill="none" fill-rule="evenodd"><g id="047---Mountain-Route" fill="rgb(0,0,0)" fill-rule="nonzero" transform="translate(-1)"><path id="Shape" d="m34.135 10c-.3568991-.61573085-1.0133206-.99626506-1.725-1h-.41v-2.278c.6167513-.35441258.997855-1.01067322 1-1.722v-2c-.002145-.71132678-.3832487-1.36758742-1-1.722v-.278c0-.55228475-.4477153-1-1-1s-1 .44771525-1 1h-4.5c-.6067226.00012952-1.1536193.36574427-1.3856523.92634481s-.1035028 1.20577505.3256523 1.63465519l.44.439-.44.439c-.4291551.42888014-.5576853 1.07405465-.3256523 1.63465519s.7789297.92621529 1.3856523.92634481h4.5v2h-.41c-.7146858.00422577-1.3733745.38763592-1.73 1.007l-1.178 2.078c-1.2943393-.3041199-2.634096.2823898-3.2886648 1.4396896s-.4669003 2.6077212.4606648 3.5603104l-22.591 39.922c-.353515.6180468-.35179493 1.3774339.00451627 1.9938728.3563112.616439 1.01347951.9969669 1.72548373.9991272h56.014c.7116964-.0023624 1.3685215-.3827532 1.7247682-.9988747.3562467-.6161214.3582391-1.3751421.0052318-1.9931253zm-7.43-7h4.295v2h-4.3c.5107137-.56812727.5128666-1.42932628.005-2zm5.695 7.992 7.673 13.558-1.419 1.827-1.88-2.35c-.355334-.456421-.9101925-.7118498-1.488-.685-.5768786.0150108-1.1134645.2992163-1.45.768l-.456.64-4.788-8.267c.6185183-1.0438139.5273685-2.3613066-.229-3.31l1.227-2.173zm-1.248 16.887-2.787-4.463c-.3175999-.5053184-.8602392-.825553-1.4561219-.8593197s-1.1712253.2231156-1.5438781.6893197l-1.865 2.335-1.3-1.519 3.45-6.1c.1158319.0194372.2326956.0321253.35.038.3575279-.0032652.7115328-.0710173 1.045-.2l5.061 8.738zm-5.152-13.879c.5522847 0 1 .4477153 1 1s-.4477153 1-1 1-1-.4477153-1-1 .4477153-1 1-1zm-4.844 11.914.951 1.113c.350607.4205688.8735816.658686 1.421.647.5506773-.006315 1.069403-.2596206 1.413-.69l1.85-2.313 2.789 4.467c.3245727.5200441.8872812.8437891 1.5.863h.061c.5954622.0005421 1.1543731-.2871107 1.5-.772l.562-.789 1.519 2.624c-.4189651.490595-.6670997 1.1040876-.707 1.748l-8.583 2.45c-.9567296-1.3442778-2.8194466-1.6636377-4.1693231-.7148239s-1.6801766 2.8096221-.7393113 4.1650507c.9408652 1.3554286 2.7997005 1.6966575 4.1606344.7637732l10.451 7.667c-.023.079-.055.153-.072.235l-9.404 1.262c-.6263319-1.2360267-2.0196246-1.8800242-3.3669234-1.5562344-1.3472987.3237898-2.2958007 1.5305793-2.2920766 2.9162344.0017247.4454868.1042886.8848019.3 1.285l-6.709 6.709-10.591-.002zm15.844 6.086c.5522847 0 1 .4477153 1 1s-.4477153 1-1 1-1-.4477153-1-1 .4477153-1 1-1zm-13 5c0 .5522847-.4477153 1-1 1s-1-.4477153-1-1 .4477153-1 1-1 1 .4477153 1 1zm-2 13c0-.5522847.4477153-1 1-1s1 .4477153 1 1-.4477153 1-1 1-1-.4477153-1-1zm-5.58 7.994 5.3-5.3c.3981921.1970536.8357386.3016546 1.28.306 1.4167642-.0009554 2.6397301-.9929212 2.933-2.379l9.408-1.261c.5689376 1.1066892 1.7634587 1.7457074 2.9998201 1.6047765 1.2363614-.1409308 2.2564263-1.0323861 2.5617054-2.2387259.3052791-1.2063397-.167966-2.4756955-1.1884681-3.1877534-1.0205021-.7120578-2.3751932-.7181492-3.4020574-.0152972l-10.451-7.667c.0649975-.2174445.1052522-.4415286.12-.668l8.583-2.451c.8616137 1.2264524 2.4946832 1.631439 3.8295148.9496852 1.3348317-.6817537 1.9640749-2.2421969 1.4755626-3.6592076-.4885122-1.4170108-1.9457007-2.2581599-3.4170774-1.9724776l-1.971-3.4.863-1.212 1.87 2.338c.3446038.4423723.8742465.7007345 1.435.7.5695355.0010553 1.1076357-.2609825 1.458-.71l1.031-1.328 17.869 31.557zm20.58-9.994c0-.5522847.4477153-1 1-1s1 .4477153 1 1-.4477153 1-1 1-1-.4477153-1-1z"/><path id="Shape" d="m53 55.5c.1784495.309084.5081008.4996339.865.5.356725-.0010783.6858633-.1921032.8637587-.5013072.1778953-.309204.1776062-.6897594-.0007587-.9986928l-7.6-13.032c-.1732496-.321924-.5083628-.5236497-.8739371-.5260777-.3655744-.002428-.7033374.1948288-.8808477.5144232s-.1664727.7105833.0287848 1.0196545z"/><circle id="Oval" cx="44.257" cy="38.621" r="1"/></g></g></svg>