<svg id="Capa_1" enable-background="new 0 0 508.131 508.131" height="512" viewBox="0 0 508.131 508.131" width="512" xmlns="http://www.w3.org/2000/svg"><g><path d="m413.012 24.279c-11.311-13.135-35.741-8.757-38.4 11.941l-6.71 57.149c-1.524 12.998-21.27 10.683-19.746-2.315l6.754-57.524c4.637-39.544-54.836-46.518-59.473-6.974l-5.966 50.813c-1.545 13.174-21.29 10.859-19.746-2.315l4.875-41.524c4.605-39.27-54.869-46.244-59.473-6.974l-9.605 81.813c-1.501 12.804-21.248 10.489-19.746-2.315l8.516-72.524c4.661-39.754-54.812-46.728-59.474-6.974l-3.923 33.412c-.735 6.262-6.25 11.166-12.554 11.166-16.551 0-30.487 12.396-32.417 28.834l-8.1 68.986c-.644 5.485 3.318 11.159 9.995 11.159l49.942.011c13.228-.006 13.218-20.006-.01-20h-38.753l6.789-57.824c.735-6.261 6.25-11.166 12.554-11.166 16.551 0 30.487-12.396 32.417-28.834l3.923-33.414c1.557-13.286 21.303-10.973 19.746 2.313l-8.516 72.523c-4.627 39.44 54.846 46.418 59.473 6.978l9.606-81.814c1.518-12.954 21.263-10.64 19.746 2.313l-4.875 41.523c-4.615 39.339 54.858 46.316 59.473 6.978l5.966-50.814c1.529-13.054 21.275-10.74 19.746 2.313l-6.754 57.523c-4.631 39.474 54.842 46.452 59.473 6.978l6.71-57.148c.312-2.095 2.541-2.161 3.467-1.123 9.297 10.415 13.777 24.74 12.095 39.067l-13.052 111.166c-3.198-4.464-21.972-27.528-55.863-27.528l-113.36-.01c-13.221-.006-13.231 19.994-.01 20l49.654.004-8.441 71.89c-1.5 12.838-21.247 10.531-19.747-2.307l2.179-18.552c4.584-39.317-55.416-43.188-60.191-.87l-19.349 164.806c-1.544 13.151-21.254 10.837-19.71-2.314l4.254-36.235c4.677-39.68-54.874-46.7-59.551-7.02l-17.42 147.435c-1.03 8.69 7.68 12.658 13.087 10.663l152.396-50.691c12.673-4.215 21.765-15.44 23.491-28.535.041-.221 12.159-103.371 12.159-103.371l81.868-27.231c26.481-8.809 45.593-32.026 48.706-59.159.001-.008 18.765-159.808 18.765-159.808 2.313-19.714-3.941-39.511-16.89-54.55zm-76.251 164.677.986-8.822c8.282-.201 14.51.938 19.696 2.704l-.942 8.477c-1.614 13.496-21.354 11.136-19.74-2.359zm-98.161 248.998-137.462 45.725 15.574-131.808c1.562-13.238 21.389-10.899 19.826 2.34l-4.255 36.239c-4.652 39.619 54.785 46.598 59.437 6.979l.468-3.986c2.271 1.41 4.738 2.577 7.373 3.454l38.492 12.804c6.486 2.157 10.869 8.183 10.659 14.652-.201 6.191-4.264 11.657-10.112 13.601zm13.677-43.467c-2.436-1.551-5.086-2.825-7.911-3.765l-38.492-12.804c-7.1-2.361-11.315-9.687-9.805-17.04 1.054-5.129 4.984-9.404 10.26-11.158l53.28-17.722zm103.841-115.669s-156.426 52.033-156.587 52.09l11.539-98.284c1.944-14.585 21.299-17.166 20.464-3.794l-2.179 18.556c-4.606 39.345 54.868 46.308 59.475 6.963l8.714-74.217 20.08.002-.732 6.55c-5.113 39.408 54.251 47.111 59.364 7.703 9.694 8.846 16.371 24.362 15.268 38.946-1.724 22.781-16.265 39.118-35.406 45.485zm-163.366-108.693c0 5.52-4.48 10-10 10-5.51 0-10-4.49-10-10 0-5.511 4.49-10 10-10 5.52 0 10 4.489 10 10z"/></g></svg>